<?xml version="1.0" encoding="UTF-8"?>
<!-- Created with Inkscape (http://www.inkscape.org/) -->
<svg width="250.27mm" height="65.412mm" version="1.1" viewBox="0 0 250.27 65.412" xmlns="http://www.w3.org/2000/svg">
 <g transform="translate(-2.9584 -25.663)">
  <a>
   <g transform="translate(79.629 -38.693)" image-rendering="auto" stroke-width=".26458">
    <path d="m-29.365 128.68c-2.0268-1.3019-6.3483-5.6013-7.706-7.6666-1.6024-2.4376-2.7456-4.9518-3.8197-8.4003l-1.0169-3.2649-1.3229 0.15837c-4.2489 0.50862-5.9145 0.49237-8.4-0.082-2.9809-0.68883-5.2671-1.7317-7.5926-3.4635-2.2455-1.6722-3.624-3.2461-4.799-5.4795l-0.9479-1.8016-2.3798-1.1906c-2.8075-1.4046-3.9307-2.1664-5.7141-3.8756-3.0604-2.933-4.2462-6.6537-3.2762-10.28 0.43843-1.6389 1.5033-3.7025 2.4757-4.7978 2.1907-2.4676 6.0074-4.5337 9.2027-4.9818 3.5924-0.50374 3.7851-0.5957 6.3318-3.0213 3.5968-3.4258 7.7908-5.3764 12.269-5.7064l1.6677-0.12286-1.6999 1.8361c-1.9283 2.0827-2.0325 2.3941-2.0325 6.0742v2.5755l-1.0007 1.1617c-1.6751 1.9448-2.0101 3.272-1.27 5.032 0.43702 1.0392 1.6113 2.2086 2.4824 2.472 1.0643 0.32189 2.8914 0.19892 3.8577-0.25963 0.66465-0.3154 1.1296-0.8341 1.6078-1.7938 1.0751-2.1574 0.87692-3.5695-0.78554-5.5983l-0.92292-1.1263v-4.9144l2.5631-2.6088c1.7096-1.7401 2.7576-2.6088 3.1471-2.6088 2.9884 0 11.752 4.8367 11.752 6.4859 0 0.38736-1.0588 1.7013-3.1133 3.8636-4.7362 4.9846-15.444 15.508-16.532 16.247-0.64086 0.43548-1.3302 0.65519-2.0556 0.65519-1.574 0-3.3677 1.1199-3.9907 2.4918-0.93635 2.0617-0.4305 4.0504 1.4056 5.5261 2.104 1.691 4.9289 1.0943 6.5921-1.3924 0.66813-0.99899 0.78288-1.3931 0.68084-2.3386l-0.12273-1.1372 1.3447-1.5087c0.73958-0.82977 5.3356-5.527 10.213-10.438l8.8687-8.9297h0.98827c1.4873 0 4.1876 1.0878 6.1158 2.4638 1.8791 1.3409 4.6861 4.355 4.6861 5.0319 0 0.23404-2.0545 2.5056-4.5656 5.0479-5.1634 5.2276-5.8805 5.6975-8.7081 5.7069l-1.7643 0.0058-1.3597-1.1606c-1.4672-1.2524-2.4745-1.5885-3.9571-1.3206-2.0247 0.36591-3.2295 1.4447-3.743 3.3516-0.39281 1.4588-0.11064 2.6658 0.88946 3.8049 1.9965 2.2738 5.2211 2.2698 7.2735-0.0092l0.86631-0.96191 2.3087-0.0016c2.571-0.0016 4.0876-0.33096 5.0826-1.1037 0.36609-0.2843 2.6656-2.5013 5.11-4.9266 3.4359-3.4091 4.498-4.323 4.6807-4.0274 0.12998 0.21032 0.50887 1.4583 0.84196 2.7734 0.51135 2.0188 0.6013 3.0294 0.57783 6.492-0.024395 3.5994-0.11298 4.3923-0.72417 6.4823-0.383 1.3097-1.3114 3.6314-2.0631 5.1594-1.1553 2.3485-1.6999 3.11-3.5211 4.9239-2.5368 2.5267-5.4964 4.1692-8.412 4.6687-2.2078 0.37818-3.7812 0.0897-6.9613-1.2762-1.2393-0.53227-2.2943-0.92456-2.3445-0.87176-0.21433 0.22543 1.2849 4.7484 2.1442 6.4689 0.51508 1.0313 1.7524 2.984 2.7495 4.3394l1.813 2.4643-0.37326 0.72181c-0.36303 0.70214-0.88189 1.0506-1.5641 1.0506-0.18382 0-1.0968-0.48983-2.0289-1.0885zm38.39-4.137c7.68e-5 -1.004 4.404-13.865 4.8433-14.145 0.48762-0.31001 2.0956-0.23812 2.8099 0.12563 0.4846 0.24678 0.88986 1.0072 1.6547 3.105 1.498 4.1086 3.6566 10.615 3.6566 11.022 0 0.53464-1.9753 0.45833-2.5314-0.0978-0.24889-0.24889-0.61795-0.84843-0.82012-1.3323-0.46976-1.1243-1.2012-1.3902-3.8243-1.3902h-2.1143l-0.5215 1.1789c-0.69891 1.58-1.167 1.9961-2.2458 1.9961-0.68757 0-0.90713-0.11208-0.90711-0.46302zm7.9375-5.5682c0-0.74146-1.4757-4.949-1.7357-4.949-0.2409 0-1.6471 4.1443-1.6833 4.9609-0.01754 0.39558 0.22994 0.46302 1.6993 0.46302 1.478 0 1.7198-0.0668 1.7198-0.47499zm6.7379 5.7063c-0.07446-0.19404-0.1029-2.5985-0.06319-5.3432 0.06117-4.2285 0.13664-5.031 0.49426-5.2563 0.72185-0.45485 1.7961 7e-3 2.1894 0.94185l0.35962 0.85449 0.33471-0.70972c0.36484-0.77362 1.606-1.4262 2.2457-1.1808 0.26629 0.10219 0.40163 0.50998 0.40163 1.2101v1.056l-1.0739 0.32176c-0.59067 0.17697-1.204 0.56484-1.363 0.86193-0.159 0.2971-0.36034 2.0918-0.44741 3.9883l-0.15832 3.4482-1.392 0.0801c-0.97547 0.0561-1.4325-0.0255-1.5274-0.27273zm9.903 0.0302c-1.023-0.37543-1.3557-1.3819-1.4772-4.4677-0.13342-3.3892-0.24373-3.9688-0.7554-3.9688-0.46306 0-0.96766-1.141-0.75252-1.7016 0.0809-0.21082 0.43474-0.57179 0.78633-0.80215 0.5076-0.33259 0.64008-0.64917 0.64329-1.5372 0.0054-1.4878 0.24488-1.7926 1.5453-1.967 1.1978-0.16066 1.1105-0.29011 1.2454 1.846 0.0911 1.4424 0.28335 1.7808 1.0117 1.7808 1.1521 0 1.4852 0.26987 1.4852 1.2034v0.88216l-1.1245 0.22182-1.1245 0.22181-0.07624 2.6147c-0.04193 1.4381 0.03633 2.7273 0.17392 2.8649 0.13759 0.13759 0.64815 0.33088 1.1346 0.42954 0.77058 0.15629 0.8956 0.29587 0.97138 1.0844 0.06088 0.63346-0.05354 1.0078-0.3813 1.2474-0.5381 0.39347-2.2942 0.41877-3.3055 0.0476zm6.2897 0.11839c-0.33406-0.33406-0.20195-10.276 0.14111-10.619 0.42743-0.42744 1.3195-0.40084 1.947 0.058l0.51359 0.37555v4.7432c0 5.2564-0.10149 5.6182-1.5758 5.6182-0.46725 0-0.92892-0.0794-1.0259-0.17639zm6.3959 0.11024c-0.02326-0.0364-0.11256-1.9639-0.19844-4.2834l-0.15614-4.2172-0.8599-0.22213c-0.70986-0.18337-0.8599-0.35007-0.8599-0.95539 0-0.84187 0.42558-1.3683 1.1062-1.3683 0.2984 0 0.53059-0.26684 0.63313-0.72761 0.30344-1.3635 0.45344-1.7857 0.84987-2.3921 0.57641-0.8817 2.4697-1.905 3.658-1.9772l1.0288-0.0625 0.0786 1.0681 0.0786 1.0681-1.0089 0.44514c-1.2002 0.52954-2.2057 1.9741-1.6285 2.3397 0.19995 0.12665 0.9291 0.23211 1.6203 0.23434l1.2568 4e-3v2.0792l-2.8451 0.59063-0.16206 0.98021c-0.08913 0.53912-0.16336 2.1333-0.16496 3.5427-0.0038 3.3243-0.22431 3.9198-1.4516 3.9198-0.51292 0-0.95162-0.0298-0.97489-0.0661zm7.0174-0.24967c-0.3819-0.60455-0.46513-9.9549-0.0926-10.404 0.44197-0.53254 2.0101-0.51443 2.2174 0.0256 0.20834 0.54293 0.1494 8.7317-0.0703 9.768-0.13844 0.65295-0.31621 0.80812-1.0022 0.87481-0.47874 0.0465-0.9269-0.0662-1.0523-0.26459zm7.9381 0.0781c-2.0934-0.53552-3.3093-2.3512-3.3093-4.9419 0-3.7431 1.3251-5.3214 4.9481-5.8932 2.0544-0.32425 2.5554-0.0715 2.4468 1.2344l-0.08109 0.97489-1.5489 0.13768c-2.1585 0.19187-2.8201 0.95757-2.8083 3.2505 0.01175 2.2882 0.35418 2.6634 2.5822 2.8295l1.775 0.13229 0.08542 0.89354c0.04698 0.49145-0.01416 0.99312-0.13585 1.1148-0.32991 0.32991-3.0032 0.51074-3.9541 0.26747zm6.625-0.43049c-0.09224-0.36751-0.12171-2.674-0.0655-5.1256 0.11373-4.9601 0.253-5.403 1.6558-5.2661l0.81628 0.0797 0.21099 1.7198c0.11604 0.94589 0.13938 3.2676 0.05186 5.1594-0.17338 3.7476-0.32536 4.101-1.7636 4.101-0.56868 0-0.77664-0.15341-0.90585-0.66821zm6.2981 0.0125c-1.83-1.5399-1.4619-4.1783 0.73803-5.289 0.36415-0.18385 1.3169-0.48491 2.1173-0.66902 1.7363-0.3994 2.105-0.64974 1.9319-1.3118-0.2227-0.8516-1.4149-1.1602-3.1172-0.80679-1.7578 0.36491-2.2557 0.23525-2.2502-0.58591 0.0091-1.3589 0.99996-1.7966 4.0481-1.7884 2.2092 6e-3 2.6954 0.19081 3.5801 1.361 0.47885 0.63339 0.8494 4.7459 0.65709 7.2926-0.13609 1.8022-0.2489 2.204-0.65497 2.3329-0.63243 0.20073-1.5477-0.0899-1.5529-0.4931-0.0021-0.17209-0.10589-0.47361-0.23037-0.67003-0.18048-0.28479-0.44376-0.21323-1.2999 0.35337-0.5905 0.39077-1.5344 0.77231-2.0977 0.84785-0.84273 0.11303-1.1737 0.0115-1.8691-0.57374zm3.7677-2.0267c0.39555-0.31114 0.81462-0.81715 0.93125-1.1245 0.23454-0.61799-0.11727-1.2478-0.60623-1.0853-0.17126 0.0569-0.8174 0.23304-1.4359 0.39135-0.99956 0.25587-1.1245 0.37343-1.1245 1.0582 0 1.2985 1.0828 1.6668 2.2353 0.76015zm7.5347 2.2619c-0.48865-0.58878-0.51275-14.246-0.02669-15.124 0.42084-0.76045 1.5102-0.79145 1.9047-0.0542 0.45298 0.84641 0.23794 14.59-0.23722 15.162-0.45959 0.55307-1.1894 0.56043-1.6408 0.0165zm12.72 0.24223c-1.775-0.75446-3.4396-3.2955-3.4396-5.2506 0-1.6039 0.69272-3.3653 1.712-4.3533 1.5788-1.5302 4.326-1.8513 6.0689-0.70924 0.89972 0.58952 1.7441 2.5028 1.7441 3.9521v1.2312l-6.4823 0.1486-0.08044 0.56395c-0.04428 0.31041 0.20726 0.8984 0.5595 1.3079l0.63994 0.74397 5.0987-0.0852v0.79867c0 0.67196-0.1574 0.86519-0.99219 1.218-1.0447 0.44154-4.1534 0.7208-4.8286 0.43377zm3.175-7.4623c0-0.70831-0.70177-1.1966-1.7198-1.1966-1.018 0-1.7198 0.48826-1.7198 1.1966 0 0.43502 0.21378 0.49677 1.7198 0.49677s1.7198-0.0618 1.7198-0.49677zm5.6271 7.2114c-0.11172-0.27328-0.20313-2.6741-0.20313-5.3352 0-5.2501 0.0239-5.3356 1.4955-5.3441 0.55172-3e-3 0.76419 0.17514 0.99393 0.83418l0.29222 0.83823 0.6095-0.5726c0.33523-0.31493 1.161-0.76051 1.8351-0.99019l1.2256-0.41759 0.92963 0.44114c1.5894 0.75422 2.0114 2.0438 2.0114 6.1468 0 4.3376-0.15786 4.8285-1.5526 4.8285-0.70115 0-1.0886-0.13543-1.1972-0.41852-0.0883-0.23018-0.16222-1.8673-0.16421-3.638-4e-3 -3.7936-0.12116-4.365-0.93495-4.5692-1.7861-0.44827-2.4856 0.85384-2.7471 5.1138-0.1003 1.6337-0.24981 3.0377-0.33224 3.1202-0.0824 0.0824-0.57924 0.21955-1.104 0.30471-0.77305 0.12545-0.99269 0.0605-1.1573-0.34205zm16.981-0.19336c-0.25902-1.032 0.0564-1.9376 0.73858-2.1204 0.32901-0.0882 1.3239-0.16192 2.2108-0.16391 3.0361-7e-3 3.3677-1.7721 0.63038-3.3554-2.6623-1.54-3.0136-1.8025-3.6222-2.7066-1.203-1.7871-0.44045-4.2499 1.6268-5.2543 1.3168-0.63974 3.7188-0.99194 5.0552-0.74122l0.94386 0.17707-0.1612 2.2195-1.9244 0.0307c-1.4636 0.0234-2.0526 0.14677-2.4599 0.51536-0.87667 0.79337-0.56922 1.7107 0.88051 2.627 0.69228 0.4376 1.8059 1.1404 2.4747 1.5618 1.3471 0.84871 2.2203 2.0602 2.2129 3.0703-9e-3 1.2444-0.95154 2.8162-2.2062 3.6794-1.0787 0.74218-1.4778 0.84916-3.7163 0.9962l-2.5078 0.16473zm11.508 0.0272c-1.6162-1.7032-1.3113-4.4015 0.59876-5.2992 0.47935-0.22528 1.6262-0.55654 2.5485-0.73613 1.9894-0.38739 2.3076-0.84694 1.229-1.7747-0.7752-0.66679-1.233-0.68917-3.7131-0.1815-0.69623 0.14252-0.85185 0.0672-1.1323-0.54836-0.42365-0.92982-0.12329-1.282 1.4815-1.7372 1.7511-0.49669 3.978-0.44292 5.0429 0.12178 1.3796 0.73156 1.6328 1.6918 1.6328 6.1913 0 4.2494-0.0945 4.5593-1.3896 4.5593-0.60056 0-0.81108-0.16203-1.0313-0.79375-0.32551-0.93377-0.5073-0.97585-1.1496-0.26607-0.49058 0.54208-1.9308 1.0557-2.9676 1.0583-0.32175 7.9e-4 -0.8392-0.26641-1.1499-0.59384zm4.0042-2.2948c0.72941-0.72941 1.0146-1.7001 0.57496-1.9573-0.34536-0.20204-2.7618 0.53153-3.0025 0.91146-0.336 0.53046-0.29732 0.70226 0.29049 1.2901 0.72297 0.72297 1.2275 0.66532 2.137-0.24423zm7.3683 2.4695c-0.30671-0.3696-0.37724-1.8339-0.37724-7.8319 0-7.8923-2e-3 -7.879 1.3229-7.879 1.2449 0 1.3068 0.22595 1.4144 5.1562 0.10272 4.7101-0.11863 9.848-0.44718 10.38-0.34179 0.55302-1.5105 0.66004-1.9129 0.17515zm6.593-0.15916c-1.1702-1.0173-1.2817-1.5284-1.2817-5.8758v-4.1091l0.51178-0.27389c0.28147-0.15064 0.8633-0.27389 1.293-0.27389h0.78119l0.19046 3.9326c0.10475 2.1629 0.28328 4.0828 0.39674 4.2664 0.27405 0.44342 1.477 0.42559 2.0264-0.03 0.76605-0.63531 1.141-1.9792 1.3217-4.7379 0.18775-2.8649 0.44488-3.4311 1.5581-3.4311 1.065 0 1.1982 0.69826 1.1209 5.8746l-0.0721 4.8287-1.5038 0.5284-1.4359-1.7593-0.86582 0.72854c-1.2192 1.0259-3.0679 1.1776-4.0409 0.33175zm12.259-0.083c-1.3444-1.1312-1.6343-1.9388-1.6332-4.5496 8e-4 -1.9063 0.10279-2.4952 0.56266-3.2496 0.90084-1.4777 2.0903-2.1932 4.5847-2.7579 1.4995-0.33942 1.6611-0.63616 1.7045-3.1287l0.0264-1.5163 0.63681-0.15983c1.781-0.447 2.009 0.56176 2.009 8.8867 0 5.5613-0.12648 6.837-0.69967 7.057-0.57139 0.21926-1.6816-0.15697-1.6816-0.56987 0-0.65554-0.49345-0.71427-1.2572-0.14962-0.40664 0.30064-1.3364 0.61734-2.0661 0.70377-1.1806 0.13982-1.4215 0.0774-2.1862-0.56604zm4.0101-2.466c1.2972-1.3539 1.6933-4.3503 0.70575-5.3379-0.63751-0.63751-1.0927-0.66179-2.1506-0.11472-1.3243 0.68483-2.0072 3.2402-1.2549 4.6962 0.86415 1.6726 1.6194 1.8842 2.6998 0.75643zm-129.73-9.8358c-1.0772-1.0772-0.35113-2.6458 1.2247-2.6458 1.015 0 1.4211 0.42677 1.4211 1.4931 0 1.4831-1.6128 2.1858-2.6458 1.1527zm28.547 0.16956c-0.72137-0.35761-1.0104-1.8046-0.48658-2.4358 0.3825-0.46087 1.8752-0.50093 2.314-0.0621 0.41701 0.41701 0.40814 1.9288-0.01323 2.2549-0.62287 0.48196-1.1813 0.55677-1.8142 0.24303zm-15.529-0.22247c-0.17462-0.17463-0.3175-0.6866-0.3175-1.1377 0-0.45112 0.14288-0.96308 0.3175-1.1377 0.17462-0.17462 0.68659-0.3175 1.1377-0.3175 1.0497 0 1.4552 0.41762 1.4552 1.4988 0 0.58324-0.16623 0.95278-0.51177 1.1377-0.68666 0.36749-1.6911 0.34644-2.0811-0.0436zm7.9727-6.3228c-1.0301-0.29822-2.2047-1.6401-2.2047-2.5186 0-0.35843 0.23812-1.1185 0.52917-1.689 0.62119-1.2176 0.65232-1.7995 0.13299-2.4855-0.33578-0.44357-0.3165-0.58938 0.1678-1.2695l0.54715-0.7684-0.55626-1.2931c-0.64881-1.5082-0.69468-2.3423-0.19349-3.5186 0.45463-1.067 1.3581-1.8805 2.521-2.27 0.9826-0.32911 4.2637-0.3994 6.2074-0.13298l1.2276 0.16826v0.88077c0 0.62596-0.1619 0.96742-0.55963 1.1803-0.46113 0.24679-0.53292 0.46412-0.40786 1.2347 0.18794 1.1581-0.35327 2.5307-1.2224 3.1002-0.35561 0.233-1.5041 0.58704-2.5521 0.78674-1.0481 0.1997-1.9795 0.43702-2.0699 0.52739-0.37764 0.37764 0.48971 0.70298 2.5694 0.96374 1.2163 0.15252 2.4211 0.38948 2.6773 0.5266 0.91484 0.48961 1.5652 1.619 1.5652 2.7182 0 0.93408-0.16364 1.229-1.2776 2.3028-0.88428 0.85233-1.6535 1.3261-2.4984 1.5389-1.4171 0.35683-3.4036 0.3642-4.6026 0.0171zm4.3526-2.358c1.1695-0.71305 1.351-1.2837 0.60124-1.8908-0.87695-0.71011-3.5902-0.69385-3.9742 0.0238-0.414 0.77356-0.33346 1.2642 0.30516 1.8592 0.73561 0.68532 1.9515 0.68842 3.0678 8e-3zm-0.2662-8.6115c0.83566-0.58532 0.79032-1.8246-0.08781-2.4-2.0131-1.319-4.2012 0.68302-2.7101 2.4797 0.38479 0.46365 2.0916 0.41505 2.7979-0.07967zm-54.445 5.7187c-0.33558-0.22037-0.39688-1.3021-0.39688-7.0039 0-7.3151 0.01416-7.3869 1.4552-7.3869 1.4405 0 1.4552 0.07451 1.4552 7.3555 0 3.6914-0.05953 6.7704-0.13229 6.8423-0.29963 0.29606-2.0129 0.43498-2.3812 0.19308zm5.8382-0.12659c-0.2109-0.25412-0.32404-1.919-0.34903-5.1357-0.04038-5.1987 0.06023-5.6008 1.4014-5.6008 0.60746 0 0.77162 0.14246 0.91467 0.79375 0.09589 0.43656 0.22696 0.79375 0.29128 0.79375s0.58846-0.31204 1.1648-0.69341c1.3551-0.89674 3.1819-1.1232 4.1171-0.51046 1.1802 0.77332 1.4383 1.8626 1.4383 6.0713 0 4.1199-0.16408 4.6576-1.4212 4.6576-1.095 0-1.2246-0.43784-1.2246-4.1351 0-4.113-0.23065-4.5862-2.1167-4.3432-1.0998 0.14175-1.8521 2.6951-1.8521 6.2862v1.8657l-0.59531 0.15954c-0.94392 0.25296-1.433 0.19509-1.7686-0.20924zm13.506-0.087c-0.70714-0.58644-1.0878-2.5648-1.0878-5.6535v-2.3401l-0.7276-0.17807c-0.84966-0.20794-1.1148-0.5298-1.1204-1.3599-0.0028-0.41402 0.22136-0.68756 0.71817-0.87645 0.90891-0.34557 1.1207-0.68052 1.1258-1.7802 0.0068-1.4758 0.39434-1.9008 1.7332-1.9008h1.1813v1.3013c0 1.811 0.17575 2.1376 1.1528 2.1424 1.1594 0.0057 1.5501 0.3263 1.4481 1.1886-0.0906 0.76593-0.33646 0.96578-1.6748 1.3613l-0.79375 0.2346-0.07828 1.4803c-0.04305 0.81417 0.01749 2.0515 0.13452 2.7496l0.21281 1.2693 1.0561 0.29527c1.1503 0.3216 1.464 0.99089 0.93111 1.9865-0.24615 0.45993-0.54721 0.54281-1.9717 0.54281-1.212 0-1.837-0.12921-2.2395-0.46302zm9.2861 0.29107c-0.8007-0.17474-2.4015-1.7967-2.8628-2.9006-0.20205-0.48356-0.36736-1.6021-0.36736-2.4857 0-2.813 1.6372-5.1059 3.8866-5.4433 3.2184-0.48262 5.0953 0.95761 5.5475 4.2568l0.16104 1.1749-0.71372 0.27136c-0.39255 0.14924-1.8966 0.27135-3.3423 0.27135h-2.6286v0.67348c0 0.37042 0.30511 0.9786 0.67802 1.3515l0.67802 0.67802 4.5971-0.18948 0.0816 0.84232c0.05964 0.61566-0.05572 0.9158-0.42871 1.1154-0.57876 0.30974-4.3658 0.58473-5.2863 0.38385zm2.7892-6.874c0.70735-0.18956 0.75362-0.54268 0.15743-1.2015-0.50312-0.55595-2.1901-0.6605-2.6842-0.16635-0.41451 0.41451-0.40697 1.1898 0.01323 1.3594 0.47291 0.19082 1.8162 0.19534 2.5135 0.0085zm6.4161 6.7873c-0.33156-0.20931-0.41053-1.3299-0.47983-6.809-0.04562-3.6071-0.0086-7.0644 0.08236-7.6829l0.16531-1.1245h0.91638c0.74022 0 0.96598 0.13047 1.1744 0.67868 0.39165 1.0301 0.33789 14.481-0.05947 14.879-0.37865 0.37865-1.2476 0.40707-1.7992 0.0589zm5.5497-0.42003c-0.14192-0.37328-0.25804-2.8141-0.25804-5.424v-4.7453h1.1623c0.81581 0 1.2102 0.12477 1.3229 0.41852 0.08833 0.23018 0.1606 2.5987 0.1606 5.2634 0 5.2451 0.0227 5.166-1.4834 5.166-0.45038 0-0.72461-0.20578-0.9044-0.67868zm19.983 0.40467c-2.4584-0.81097-3.7043-4.2033-2.7335-7.4434 0.33631-1.1225 1.9745-2.8952 2.9298-3.1703 1.2247-0.35269 3.2336-0.22777 3.9515 0.24573 1.4336 0.94547 2.5064 3.0768 2.2939 4.5573-0.11912 0.8301-0.77034 0.99822-3.9943 1.0312l-2.5797 0.02637v0.55449c0 0.30497 0.20836 0.91018 0.46302 1.3449l0.46302 0.79043 5.0271-0.1763 0.07966 0.81628c0.04658 0.47733-0.08008 0.94886-0.30503 1.1355-0.5013 0.41604-4.5719 0.62534-5.5955 0.2877zm3.3157-7.0073c0.1336-0.08257 0.10716-0.42914-0.0609-0.79798-0.23603-0.51802-0.49373-0.65201-1.2541-0.65201-1.4788 0-2.8583 1.275-1.8023 1.6658 0.40621 0.15037 2.7921-0.01482 3.1173-0.21584zm5.6139 7.106c-0.35806-0.14448-0.41547-5.1578-0.09943-8.6832l0.16557-1.8469 0.7118-0.2491c0.829-0.29012 1.5372 0.13956 1.5372 0.93266 0 0.27322 0.17859 0.49677 0.39688 0.49677s0.39688-0.12488 0.39688-0.27752c0-0.439 2.1476-1.2978 3.2615-1.3042 0.76273-0.0044 1.1967 0.17834 1.7589 0.74057 0.63675 0.63675 0.77234 1.0351 0.92309 2.712 0.09719 1.0811 0.13911 3.2158 0.09316 4.7437l-0.08355 2.7781-0.79375 0.0689c-1.438 0.12487-1.5292-0.0951-1.7286-4.1678-0.20709-4.2297-0.39663-4.6855-1.8186-4.3732-1.2837 0.28195-1.6767 1.3308-1.8667 4.9823-0.12063 2.3183-0.26241 3.1879-0.54935 3.3694-0.40797 0.25804-1.7461 0.30304-2.305 0.0775zm14.883-0.058c-2.0957-0.43196-3.1476-2.0961-3.1361-4.9614 0.0091-2.273 0.81225-4.1494 2.1573-5.0402 0.89438-0.59232 3.0246-0.99405 4.4263-0.8347l0.78591 0.08935 0.1628 2.249-1.0074 0.0313c-1.9866 0.06173-2.5487 0.31383-3.1782 1.4252-0.69478 1.2268-0.75808 2.1686-0.23058 3.4311 0.39648 0.94891 0.80114 1.1088 3.1951 1.2623l1.0583 0.06787 0.0845 1.0314c0.0529 0.64627-0.0459 1.114-0.26458 1.2527-0.39177 0.24841-2.8406 0.24609-4.0532-4e-3zm6.8924-0.01c-0.2696-0.43623-0.21934-10.108 0.054-10.381 0.14299-0.14299 0.72215-0.22209 1.287-0.17579l1.0271 0.0842 0.2156 1.5875c0.11859 0.87312 0.16133 3.1274 0.095 5.0095-0.10232 2.9026-0.19293 3.4749-0.59691 3.7703-0.54651 0.39961-1.8587 0.46584-2.0817 0.10505zm5.9332-0.55771c-1.0638-1.1388-1.2197-2.1379-0.52444-3.361 0.76346-1.3431 1.5164-1.8492 3.4939-2.3479 2.0535-0.51794 2.2466-0.68495 1.8353-1.5876l-0.32052-0.70346-1.7757 0.13778c-0.97666 0.07578-1.975 0.21975-2.2185 0.31993-0.62293 0.25628-1.0904-0.67769-0.76617-1.5306 0.18889-0.49683 0.56644-0.7248 1.6182-0.97712 1.8286-0.43866 4.604-0.21119 5.3191 0.43595 1.1283 1.0211 1.283 1.7319 1.283 5.8946v3.9726l-0.54281 0.29051c-0.9081 0.48599-1.6951 0.22103-1.7899-0.60262-0.10568-0.91851-0.27407-0.9111-1.5038 0.06615-1.4149 1.1244-3.0533 1.1216-4.1077-0.0072zm4.5649-2.2066c0.73279-0.90464 0.60179-1.4904-0.33334-1.4904-1.0915 0-2.6373 0.67871-2.6373 1.1579 0 0.21515 0.31038 0.63532 0.68974 0.93372 0.77398 0.60882 1.4438 0.43226 2.2809-0.60125zm-61.179-9.957c-1.0252-1.0252-0.36104-2.6509 1.0792-2.6418 0.8832 0.0056 1.2294 0.27554 1.4426 1.125 0.4079 1.6252-1.3537 2.6848-2.5217 1.5168zm50.859 0.11729c-1.1151-0.78106-0.58974-2.375 0.87328-2.6494 1.1764-0.22069 1.7137 0.20538 1.7137 1.3589 0 0.90787-0.7409 1.7024-1.5875 1.7024-0.22628 0-0.67604-0.18535-0.99946-0.41188zm-82.675-12.993c0.1819-0.0734 0.47956-0.0734 0.66146 0s0.03307 0.13345-0.33073 0.13345c-0.3638 0-0.51263-0.06006-0.33073-0.13345zm5.3082-0.0055c0.19099-0.07643 0.4192-0.06703 0.50712 0.02088 0.08792 0.08792-0.06835 0.15045-0.34727 0.13896-0.30823-0.0127-0.37092-0.07539-0.15985-0.15985zm47.471-1.4068c0-0.50932 0.05445-0.71768 0.121-0.46302 0.06655 0.25466 0.06655 0.67138 0 0.92604-0.06655 0.25466-0.121 0.0463-0.121-0.46302zm-57.127-1.8521c0-0.94588 0.04802-1.3328 0.10672-0.8599 0.05869 0.47294 0.05869 1.2468 0 1.7198-0.05869 0.47294-0.10672 0.08599-0.10672-0.8599zm33.584 1.4051c0.25466-0.06655 0.67138-0.06655 0.92604 0 0.25466 0.06655 0.0463 0.121-0.46302 0.121-0.50932 0-0.71768-0.05445-0.46302-0.121zm8.0729-0.0047c0.32912-0.06329 0.80537-0.06088 1.0583 0.0053 0.25297 0.06622-0.01633 0.118-0.5984 0.11507-0.58208-0.0029-0.78905-0.05712-0.45994-0.12041zm6.4339-1.0255c0.0127-0.30823 0.07539-0.37092 0.15985-0.15985 0.07643 0.191 0.06703 0.4192-0.02088 0.50712-0.08792 0.08792-0.15045-0.06835-0.13896-0.34726zm0.10052-3.5674c-0.09592-0.1552-0.11765-0.33893-0.0483-0.40829 0.06935-0.06936 0.1966 0.05763 0.28277 0.28219 0.17891 0.46622 0.02641 0.54823-0.23447 0.1261zm-52.223-3.3118c0.0127-0.30823 0.07539-0.37092 0.15985-0.15985 0.07643 0.191 0.06703 0.4192-0.02088 0.50712-0.08792 0.08792-0.15045-0.06835-0.13896-0.34727zm9.3888-0.29727c-0.14358-0.37708-0.11319-0.40747 0.14811-0.14811 0.18082 0.17948 0.26212 0.39297 0.18065 0.47443-0.08146 0.08146-0.22941-0.06538-0.32877-0.32632zm45.293-0.25279c0.1819-0.0734 0.47956-0.0734 0.66146 0s0.03307 0.13345-0.33073 0.13345c-0.3638 0-0.51263-0.06005-0.33073-0.13345z" fill="#218aba"/>
    <path d="m9.2907 74.773c-0.72791-0.21516-0.99752-0.93217-0.55225-1.4687 0.19347-0.23312 0.70775-0.30484 1.5829-0.22076 1.157 0.11117 1.3424 0.05414 1.7256-0.53074 0.61101-0.93252 0.32512-1.3817-1.5452-2.4276-1.3721-0.7673-1.7053-1.0949-1.9893-1.9553-0.41523-1.2581-0.25295-1.8425 0.78882-2.8406 0.69321-0.66414 1.0448-0.77989 2.6428-0.87019l1.8432-0.10415v1.6472h-1.4228c-2.6224 0-2.6347 1.5689-0.02299 2.9317 1.2682 0.66176 2.2396 1.9156 2.2382 2.8891-0.0011 0.69364-1.0057 2.0766-1.8112 2.4931-0.96651 0.4998-2.6045 0.715-3.4777 0.4569zm22.442-0.10576c-0.22633-0.1819-0.86285-1.6702-1.4145-3.3073s-1.1036-2.9766-1.2266-2.9766c-0.12296 0-0.22357 0.67486-0.22357 1.4997 0 0.82482-0.13128 2.2536-0.29174 3.175l-0.29175 1.6753h-0.75097c-0.41304 0-0.81394-0.10188-0.8909-0.2264-0.20659-0.33427 0.85206-7.9881 1.3319-9.6293 0.09927-0.33953 0.41288-0.46302 1.1759-0.46302 0.57228 0 1.0405 0.0324 1.0405 0.072 0 0.22038 2.0916 6.0156 2.3156 6.4158l0.26724 0.47754 0.14057-0.50612c0.79344-2.8567 1.8777-5.9509 2.1705-6.1939 0.19978-0.1658 0.75796-0.26356 1.2404-0.21725l0.87718 0.0842 0.19025 1.0583c0.62226 3.4615 1.252 8.9823 1.0479 9.1864-0.4039 0.4039-1.6304-0.07271-1.7574-0.68288-0.50491-2.4266-0.67191-3.502-0.67542-4.3494-0.0041-0.99954-0.35565-1.8792-0.58756-1.4704-0.14523 0.25601-1.1202 3.5698-1.3579 4.6155-0.19046 0.83774-1.1448 2.0935-1.591 2.0935-0.17991 0-0.51228-0.14883-0.73861-0.33073zm42.115 0.11979c-0.21828-0.07315-0.48435-0.26396-0.59126-0.42405-0.23339-0.34946-0.27112-8.9325-0.04189-9.5298 0.37199-0.9694 5.2351-0.18886 6.0472 0.97059 0.86966 1.2416 0.145 3.1343-1.5668 4.0923l-0.49622 0.2777 1.3613 1.9976c1.7177 2.5205 1.7569 2.6968 0.57931 2.6063-1.0106-0.0777-1.7791-0.78328-2.8975-2.6601-0.35668-0.59857-0.73642-1.0883-0.84388-1.0883-0.10746 0-0.2768 0.82633-0.37632 1.8363-0.17894 1.8159-0.40159 2.1803-1.174 1.9215zm3.2411-6.3526c0.97015-0.83321 0.22252-2.4323-1.1372-2.4323-0.77326 0-1.0456 0.3965-1.0456 1.5222 0 1.4298 1.0621 1.8727 2.1828 0.91016zm8.7935 6.1529c-3.0239-0.76779-4.1817-4.3866-2.4686-7.7155 1.5245-2.9625 6.0098-3.3245 7.8214-0.63133 0.94776 1.4089 1.2233 2.7819 0.86113 4.2914-0.77468 3.2292-3.2095 4.8183-6.214 4.0554zm3.1697-2.2626c0.8252-0.72454 0.93525-0.96971 0.93525-2.0836 0-2.8137-0.82888-4.239-2.4652-4.239-1.891 0-3.075 1.9179-2.7055 4.3823 0.38773 2.5856 2.4332 3.5226 4.2355 1.9403zm-71.031-2.7603v-5.169l5.1594 0.15146 0.16744 1.4552h-3.5037l0.16128 2.5135 1.5852 0.13229c1.2533 0.10459 1.6041 0.2319 1.6755 0.60802 0.12641 0.66584-0.40399 1.2151-1.0183 1.0544-0.28396-0.07425-0.93443-0.05657-1.4455 0.0393l-0.92919 0.17432v1.1503c0 1.3076 0.2199 1.4715 1.9736 1.4715 1.2221 0 1.8433 0.45654 1.5745 1.1571-0.13713 0.35736-0.60943 0.43041-2.7827 0.43041h-2.6175zm23.945 4.5897c-0.08287-0.33627-0.11672-2.6355-0.07523-5.1093l0.07545-4.4979h1.8521v10.054l-0.85082 0.08223c-0.7031 0.06796-0.87698-0.02392-1.0015-0.52917zm6.0138-4.5044 0.07189-5.1029h1.5875l0.07275 4.145 0.07275 4.145 3.2941 0.44132v1.3229l-5.1709 0.15159zm8.1417-0.07579v-5.1594h1.5875l4e-3 3.9026c0.0021 2.1464 0.10268 4.0581 0.22323 4.2482 0.12055 0.19007 0.88602 0.4144 1.7011 0.49852 1.4907 0.15386 1.9091 0.48516 1.6069 1.2726-0.12042 0.3138-0.67251 0.39688-2.6375 0.39688h-2.4852zm7.9979 0.07546 0.07189-5.1025 1.3229-0.08584c0.7276-0.04721 1.955-8e-3 2.7276 0.08714 1.2481 0.15369 1.3956 0.23701 1.3229 0.7473-0.07202 0.50566-0.2874 0.59014-1.8016 0.70661l-1.7198 0.13229v2.3812l1.0583 0.07052c1.896 0.12634 2.249 0.28216 2.249 0.99285v0.65642h-1.5697c-1.7729 0-2.065 0.33235-1.7531 1.995l0.16709 0.89066 3.288 0.15704v1.3229l-5.4354 0.15093z" fill="#505052"/>
   </g>
  </a>
 </g>
</svg>
