<svg height="512" viewBox="0 0 512 512" width="512" xmlns="http://www.w3.org/2000/svg" xmlns:xlink="http://www.w3.org/1999/xlink"><linearGradient id="New_Gradient_Swatch_4" gradientUnits="userSpaceOnUse" x1="71.515" x2="440.485" y1="440.485" y2="71.515"><stop offset=".011" stop-color="#cacad5"/><stop offset="1" stop-color="#ededf1"/></linearGradient><linearGradient id="New_Gradient_Swatch_3" gradientUnits="userSpaceOnUse" x1="199.514" x2="312.486" y1="256.486" y2="143.515"><stop offset=".011" stop-color="#606082"/><stop offset="1" stop-color="#83839e"/></linearGradient><linearGradient id="New_Gradient_Swatch_11" gradientUnits="userSpaceOnUse" x1="280.36" x2="455.64" y1="471.64" y2="296.36"><stop offset=".011" stop-color="#60c6be"/><stop offset="1" stop-color="#80d1cb"/></linearGradient><g id="_35-refrigerator" data-name="35-refrigerator"><g id="gradient"><rect fill="url(#New_Gradient_Swatch_4)" height="504" rx="12" width="248" x="132" y="4"/><path d="m345.735 176.983a12 12 0 0 0 -9.735-4.983h-160a12 12 0 0 0 -11.384 15.8l16 48a12 12 0 0 0 11.384 8.2h128a12 12 0 0 0 11.384-8.205l16-48a12 12 0 0 0 -1.649-10.812z" fill="url(#New_Gradient_Swatch_3)"/><path d="m132 172h248v24h-248z" fill="#4e4e74"/><path d="m168 148a12 12 0 0 1 -12-12v-96a12 12 0 0 1 24 0v96a12 12 0 0 1 -12 12z" fill="#b8b8c7"/><circle cx="368" cy="384" fill="url(#New_Gradient_Swatch_11)" r="124"/><g fill="#eff9f8"><circle cx="368.551" cy="440" r="12.002"/><path d="m336.01 406.424a12 12 0 0 1 -6.991-21.762 68.046 68.046 0 0 1 77.727-.932 12 12 0 0 1 -13.492 19.85 44.04 44.04 0 0 0 -50.273.6 11.949 11.949 0 0 1 -6.971 2.244z"/><path d="m304.008 370.443a12 12 0 0 1 -7.46-21.406 116.054 116.054 0 0 1 142.777-.959 12 12 0 1 1 -14.65 19.01 92.051 92.051 0 0 0 -113.223.762 11.953 11.953 0 0 1 -7.444 2.593z"/></g></g></g></svg>